<?xml version="1.0" encoding="utf-8"?>
<!-- Generator: Adobe Illustrator 16.0.4, SVG Export Plug-In . SVG Version: 6.00 Build 0)  -->
<!DOCTYPE svg PUBLIC "-//W3C//DTD SVG 1.1//EN" "http://www.w3.org/Graphics/SVG/1.1/DTD/svg11.dtd">
<svg version="1.1" id="Layer_1" xmlns="http://www.w3.org/2000/svg" xmlns:xlink="http://www.w3.org/1999/xlink" x="0px" y="0px"
	 width="197.956px" height="94.795px" viewBox="0 0 197.956 94.795" enable-background="new 0 0 197.956 94.795"
	 xml:space="preserve">
<path fill="#4D4D4D" d="M177.268,23.169l-7.875-15.536c-0.141-0.266-0.283-0.473-0.431-0.619c-0.146-0.147-0.312-0.256-0.493-0.326
	c-0.183-0.07-0.389-0.105-0.62-0.105c-0.23,0-0.5,0-0.809,0h-5.418v30.576h6.259V19.561c0-0.406-0.015-0.851-0.042-1.334
	c-0.028-0.482-0.07-0.969-0.126-1.459l8.147,15.75c0.252,0.49,0.591,0.86,1.019,1.112c0.427,0.252,0.913,0.378,1.459,0.378h0.967
	c0.546,0,1.032-0.126,1.459-0.378s0.767-0.622,1.019-1.112l8.106-15.729c-0.084,0.994-0.126,1.918-0.126,2.772v17.598h6.258V6.582
	h-5.418c-0.309,0-0.578,0-0.809,0c-0.231,0-0.438,0.035-0.62,0.105c-0.182,0.07-0.346,0.179-0.493,0.326
	c-0.146,0.146-0.291,0.354-0.431,0.619l-7.854,15.473c-0.28,0.547-0.554,1.11-0.819,1.692s-0.518,1.181-0.756,1.797
	c-0.238-0.602-0.486-1.19-0.745-1.766C177.817,24.255,177.547,23.701,177.268,23.169z M153.979,29.378
	c-0.196,0.091-0.378,0.206-0.546,0.347c-0.42,0.364-0.837,0.668-1.25,0.913s-0.847,0.444-1.302,0.599s-0.948,0.263-1.48,0.325
	c-0.532,0.063-1.12,0.095-1.764,0.095c-1.12,0-2.17-0.217-3.15-0.651c-0.979-0.434-1.837-1.067-2.572-1.9s-1.316-1.858-1.743-3.076
	s-0.641-2.611-0.641-4.179c0-1.498,0.214-2.85,0.641-4.054c0.427-1.203,1.022-2.229,1.785-3.076c0.763-0.847,1.677-1.498,2.74-1.953
	c1.064-0.455,2.24-0.683,3.528-0.683c0.742,0,1.39,0.057,1.942,0.168c0.553,0.112,1.036,0.249,1.449,0.41s0.77,0.336,1.071,0.524
	c0.301,0.189,0.577,0.364,0.829,0.525s0.49,0.298,0.714,0.409c0.224,0.112,0.462,0.168,0.714,0.168c0.378,0,0.672-0.08,0.882-0.241
	s0.393-0.34,0.546-0.536l2.395-3.213c-0.574-0.602-1.232-1.151-1.974-1.648c-0.742-0.496-1.555-0.924-2.437-1.28
	c-0.882-0.357-1.83-0.638-2.846-0.841c-1.015-0.202-2.097-0.304-3.244-0.304c-2.366,0-4.529,0.385-6.489,1.154
	c-1.96,0.771-3.644,1.849-5.05,3.234c-1.407,1.386-2.503,3.034-3.287,4.945s-1.176,4.008-1.176,6.29
	c0,2.239,0.343,4.315,1.029,6.227c0.686,1.91,1.669,3.562,2.95,4.955c1.281,1.394,2.842,2.485,4.683,3.276s3.924,1.187,6.248,1.187
	c2.533,0,4.729-0.409,6.583-1.229c1.855-0.819,3.398-2.033,4.631-3.644l-2.814-2.961c-0.154-0.154-0.314-0.263-0.482-0.325
	c-0.168-0.063-0.336-0.095-0.504-0.095C154.378,29.241,154.175,29.287,153.979,29.378z M130.082,9.48
	c-0.546-0.504-1.166-0.956-1.858-1.354c-0.693-0.399-1.438-0.742-2.236-1.029c-0.799-0.287-1.642-0.504-2.531-0.651
	c-0.889-0.146-1.803-0.22-2.74-0.22c-1.68,0-3.171,0.255-4.473,0.767c-1.303,0.511-2.401,1.193-3.297,2.047
	c-0.896,0.854-1.575,1.827-2.037,2.919s-0.693,2.213-0.693,3.36c0,1.428,0.196,2.629,0.588,3.602
	c0.393,0.973,0.906,1.785,1.544,2.436c0.637,0.651,1.361,1.176,2.173,1.575c0.812,0.399,1.646,0.735,2.5,1.008
	c0.854,0.273,1.687,0.521,2.498,0.746c0.812,0.224,1.537,0.482,2.174,0.776s1.151,0.665,1.544,1.113
	c0.392,0.448,0.588,1.029,0.588,1.743c0,1.231-0.357,2.131-1.071,2.698s-1.715,0.851-3.003,0.851c-0.952,0-1.778-0.133-2.478-0.399
	c-0.701-0.266-1.32-0.56-1.859-0.882c-0.539-0.321-1.021-0.615-1.449-0.882c-0.427-0.266-0.85-0.398-1.27-0.398
	c-0.322,0-0.623,0.076-0.903,0.23s-0.497,0.357-0.651,0.609l-2.1,3.317c0.602,0.603,1.309,1.148,2.121,1.639
	c0.812,0.49,1.68,0.913,2.604,1.271c0.924,0.356,1.88,0.633,2.867,0.829c0.986,0.196,1.956,0.294,2.908,0.294
	c1.735,0,3.286-0.263,4.651-0.787c1.365-0.525,2.513-1.246,3.444-2.163c0.931-0.917,1.641-1.991,2.131-3.224
	c0.49-1.231,0.735-2.555,0.735-3.969c0-1.274-0.196-2.363-0.588-3.266c-0.393-0.903-0.907-1.67-1.544-2.3s-1.364-1.147-2.184-1.554
	s-1.656-0.76-2.51-1.061s-1.69-0.574-2.51-0.819c-0.818-0.244-1.547-0.515-2.184-0.809s-1.152-0.644-1.543-1.05
	c-0.393-0.406-0.588-0.917-0.588-1.533c0-0.966,0.325-1.732,0.977-2.299c0.65-0.567,1.641-0.851,2.971-0.851
	c0.77,0,1.456,0.102,2.059,0.304c0.602,0.203,1.137,0.431,1.606,0.683c0.469,0.252,0.889,0.48,1.26,0.683
	c0.37,0.203,0.717,0.305,1.039,0.305c0.364,0,0.662-0.084,0.893-0.252c0.231-0.168,0.451-0.42,0.662-0.756L130.082,9.48z"/>
<path fill="#FF931E" d="M64.936,0c-1.445,0-2.907,0.092-4.378,0.28C47.154,1.996,36.571,11.279,32.548,23.288
	c4.364,3.198,7.457,8.11,8.198,13.901c0.743,5.789-1.012,11.323-4.428,15.519c5.323,8.157,13.995,13.776,23.814,15.154
	c2.411-7.211,8.764-12.785,16.808-13.815c0.882-0.113,1.76-0.168,2.626-0.168c3.865-0.001,7.534,1.094,10.67,3.021
	c6.404-7.124,9.785-16.892,8.471-27.139C96.502,12.557,81.833-0.001,64.936,0"/>
<path fill="#FF931E" d="M90.237,56.899c-5.269,5.86-12.583,9.932-21.012,11.011c-1.472,0.188-2.934,0.28-4.379,0.28
	c-1.594,0-3.167-0.111-4.713-0.328c-0.947,2.832-1.286,5.916-0.88,9.076c1.321,10.323,10.125,17.856,20.265,17.856
	c0.866,0,1.742-0.056,2.624-0.168c11.207-1.435,19.127-11.686,17.692-22.889C99.012,65.349,95.329,60.026,90.237,56.899"/>
<path fill="#FF5504" d="M79.567,53.879c-0.867,0-1.744,0.055-2.626,0.168c-8.044,1.03-14.397,6.604-16.808,13.815
	c1.546,0.217,3.119,0.328,4.713,0.328c1.445,0,2.908-0.092,4.379-0.28c8.43-1.079,15.744-5.15,21.012-11.011
	C87.101,54.973,83.432,53.878,79.567,53.879"/>
<path fill="#FF931E" d="M20.485,19.331c-0.867,0-1.745,0.055-2.627,0.168C6.651,20.934-1.268,31.184,0.168,42.389
	c1.325,10.324,10.125,17.859,20.267,17.859c0.866,0,1.742-0.056,2.624-0.168c5.416-0.694,10.064-3.448,13.26-7.372
	c-2.722-4.172-4.568-9.008-5.244-14.28c-0.675-5.271-0.108-10.417,1.474-15.14C29.132,20.784,24.938,19.33,20.485,19.331"/>
<path fill="#FF5504" d="M32.548,23.288c-1.582,4.723-2.149,9.868-1.474,15.14c0.676,5.272,2.522,10.108,5.244,14.28
	c3.416-4.195,5.171-9.729,4.428-15.519C40.005,31.398,36.913,26.486,32.548,23.288"/>
<g>
	<g>
		<path fill="#4D4D4D" d="M116.352,44.002c-0.051,0.097-0.124,0.145-0.221,0.145c-0.074,0-0.169-0.053-0.285-0.157
			c-0.117-0.104-0.274-0.221-0.474-0.349c-0.198-0.128-0.448-0.245-0.746-0.353s-0.667-0.162-1.104-0.162s-0.822,0.062-1.155,0.188
			s-0.611,0.295-0.836,0.51c-0.224,0.216-0.396,0.465-0.511,0.748c-0.117,0.283-0.176,0.581-0.176,0.893
			c0,0.408,0.087,0.745,0.26,1.012c0.174,0.267,0.402,0.493,0.686,0.68c0.283,0.188,0.605,0.345,0.966,0.472
			c0.36,0.128,0.731,0.254,1.11,0.379c0.381,0.124,0.751,0.262,1.111,0.412c0.36,0.149,0.683,0.338,0.967,0.564
			c0.283,0.228,0.512,0.506,0.685,0.838c0.173,0.331,0.26,0.743,0.26,1.236c0,0.505-0.087,0.979-0.259,1.424
			c-0.174,0.445-0.424,0.832-0.753,1.16c-0.329,0.329-0.731,0.588-1.207,0.778c-0.476,0.189-1.021,0.284-1.632,0.284
			c-0.793,0-1.477-0.14-2.049-0.421c-0.572-0.28-1.074-0.664-1.504-1.151l0.238-0.374c0.067-0.085,0.146-0.128,0.237-0.128
			c0.052,0,0.116,0.034,0.196,0.103c0.079,0.068,0.176,0.151,0.289,0.251c0.113,0.099,0.25,0.207,0.408,0.322
			c0.159,0.116,0.344,0.225,0.554,0.323c0.21,0.1,0.45,0.183,0.724,0.251c0.271,0.068,0.582,0.102,0.928,0.102
			c0.477,0,0.902-0.072,1.277-0.217c0.374-0.144,0.69-0.341,0.948-0.59c0.259-0.25,0.456-0.546,0.592-0.889s0.204-0.71,0.204-1.101
			c0-0.425-0.086-0.775-0.26-1.05c-0.173-0.275-0.401-0.505-0.686-0.688c-0.283-0.185-0.605-0.339-0.966-0.464
			c-0.36-0.124-0.73-0.246-1.11-0.365c-0.381-0.119-0.751-0.252-1.111-0.399c-0.359-0.147-0.682-0.336-0.966-0.565
			s-0.513-0.516-0.685-0.858c-0.174-0.343-0.26-0.771-0.26-1.287c0-0.402,0.076-0.791,0.229-1.165s0.377-0.704,0.673-0.99
			c0.295-0.286,0.659-0.516,1.094-0.688c0.434-0.173,0.929-0.259,1.484-0.259c0.625,0,1.186,0.099,1.682,0.297
			s0.949,0.502,1.357,0.91L116.352,44.002z"/>
		<path fill="#4D4D4D" d="M122.346,45.974c0.607,0,1.148,0.104,1.629,0.311c0.479,0.207,0.881,0.5,1.211,0.88
			c0.328,0.38,0.578,0.837,0.752,1.373c0.172,0.535,0.26,1.134,0.26,1.797s-0.088,1.262-0.26,1.794
			c-0.174,0.532-0.424,0.989-0.752,1.368c-0.33,0.38-0.732,0.672-1.211,0.876c-0.48,0.204-1.021,0.306-1.629,0.306
			c-0.605,0-1.148-0.102-1.627-0.306s-0.885-0.496-1.217-0.876c-0.33-0.379-0.582-0.836-0.756-1.368s-0.26-1.131-0.26-1.794
			s0.086-1.262,0.26-1.797c0.174-0.536,0.426-0.993,0.756-1.373c0.332-0.38,0.738-0.673,1.217-0.88S121.741,45.974,122.346,45.974z
			 M122.346,54.04c0.504,0,0.945-0.086,1.322-0.259s0.691-0.421,0.943-0.744c0.252-0.322,0.441-0.712,0.564-1.169
			c0.125-0.456,0.188-0.967,0.188-1.534c0-0.561-0.062-1.07-0.188-1.529c-0.123-0.459-0.312-0.852-0.564-1.178
			c-0.252-0.325-0.566-0.576-0.943-0.752s-0.818-0.264-1.322-0.264s-0.945,0.088-1.322,0.264s-0.691,0.427-0.943,0.752
			c-0.252,0.326-0.441,0.719-0.568,1.178s-0.191,0.969-0.191,1.529c0,0.567,0.064,1.078,0.191,1.534
			c0.127,0.457,0.316,0.847,0.568,1.169c0.252,0.323,0.566,0.571,0.943,0.744S121.842,54.04,122.346,54.04z"/>
		<path fill="#4D4D4D" d="M128.348,54.567v-7.573l-1.189-0.077c-0.166-0.011-0.248-0.082-0.248-0.212v-0.332h1.438v-1.07
			c0-0.481,0.062-0.905,0.188-1.271c0.123-0.365,0.299-0.67,0.525-0.913c0.227-0.244,0.5-0.427,0.82-0.549
			c0.32-0.121,0.674-0.183,1.059-0.183c0.176,0,0.354,0.016,0.531,0.047c0.18,0.031,0.336,0.075,0.473,0.132l-0.025,0.391
			c-0.006,0.08-0.061,0.119-0.162,0.119c-0.068,0-0.16-0.009-0.275-0.025c-0.117-0.017-0.26-0.025-0.43-0.025
			c-0.277,0-0.535,0.041-0.77,0.123c-0.236,0.082-0.438,0.214-0.607,0.396s-0.303,0.418-0.396,0.71s-0.139,0.65-0.139,1.075v1.045
			h2.744v0.604h-2.729v7.591H128.348z"/>
		<path fill="#4D4D4D" d="M136.184,54.703c-0.572,0-1.018-0.158-1.334-0.476c-0.318-0.317-0.477-0.808-0.477-1.471v-5.78h-1.215
			c-0.062,0-0.113-0.017-0.152-0.051c-0.041-0.034-0.061-0.082-0.061-0.145v-0.314l1.445-0.102l0.201-3.026
			c0.006-0.051,0.027-0.097,0.062-0.136c0.037-0.04,0.086-0.06,0.148-0.06h0.379v3.229h2.66v0.604h-2.66v5.738
			c0,0.232,0.029,0.432,0.088,0.599c0.061,0.167,0.143,0.305,0.248,0.412c0.104,0.108,0.227,0.188,0.369,0.238
			c0.141,0.051,0.295,0.076,0.459,0.076c0.203,0,0.379-0.029,0.527-0.089c0.146-0.06,0.273-0.125,0.383-0.195
			c0.107-0.071,0.195-0.136,0.262-0.195c0.068-0.06,0.123-0.09,0.162-0.09c0.045,0,0.09,0.028,0.137,0.085l0.221,0.357
			c-0.215,0.238-0.488,0.429-0.82,0.573S136.542,54.703,136.184,54.703z"/>
		<path fill="#4D4D4D" d="M138.991,46.11h0.621c0.078,0,0.145,0.021,0.195,0.063c0.051,0.042,0.084,0.089,0.102,0.14l2.133,6.673
			c0.041,0.131,0.072,0.255,0.094,0.374c0.023,0.119,0.045,0.238,0.068,0.357c0.029-0.119,0.061-0.238,0.094-0.357
			s0.074-0.243,0.119-0.374l2.27-6.732c0.039-0.124,0.119-0.187,0.238-0.187h0.33c0.125,0,0.207,0.062,0.248,0.187l2.234,6.732
			c0.086,0.255,0.154,0.502,0.205,0.739c0.021-0.119,0.047-0.239,0.072-0.361c0.025-0.121,0.061-0.247,0.105-0.378l2.143-6.673
			c0.045-0.136,0.141-0.203,0.289-0.203h0.594l-2.83,8.457h-0.596c-0.09,0-0.154-0.06-0.195-0.179l-2.32-6.868
			c-0.027-0.085-0.053-0.17-0.076-0.255c-0.021-0.085-0.043-0.17-0.059-0.255c-0.018,0.085-0.035,0.17-0.057,0.255
			c-0.02,0.085-0.043,0.17-0.072,0.255l-2.346,6.868c-0.033,0.119-0.102,0.179-0.203,0.179h-0.57L138.991,46.11z"/>
		<path fill="#4D4D4D" d="M157.907,54.567c-0.17,0-0.275-0.079-0.314-0.238l-0.119-1.079c-0.232,0.227-0.463,0.431-0.693,0.612
			c-0.229,0.181-0.469,0.334-0.719,0.459c-0.248,0.124-0.518,0.22-0.807,0.284c-0.289,0.065-0.607,0.098-0.951,0.098
			c-0.289,0-0.57-0.042-0.842-0.127c-0.273-0.085-0.514-0.216-0.723-0.392c-0.211-0.175-0.379-0.4-0.506-0.676
			c-0.127-0.274-0.191-0.604-0.191-0.99c0-0.356,0.102-0.688,0.307-0.994c0.203-0.306,0.521-0.572,0.955-0.799
			s0.992-0.408,1.676-0.544c0.682-0.137,1.502-0.216,2.459-0.238V49.06c0-0.782-0.168-1.384-0.506-1.807
			c-0.336-0.422-0.836-0.633-1.5-0.633c-0.408,0-0.754,0.057-1.041,0.17c-0.285,0.113-0.527,0.238-0.727,0.374
			c-0.197,0.136-0.359,0.261-0.484,0.374s-0.229,0.17-0.314,0.17c-0.113,0-0.199-0.051-0.256-0.153l-0.143-0.246
			c0.441-0.442,0.906-0.776,1.393-1.003c0.488-0.227,1.041-0.34,1.658-0.34c0.453,0,0.85,0.072,1.189,0.217
			c0.34,0.144,0.623,0.351,0.846,0.62c0.225,0.27,0.393,0.595,0.506,0.978s0.17,0.809,0.17,1.279v5.508H157.907z M154.506,54.117
			c0.328,0,0.631-0.035,0.904-0.106c0.275-0.071,0.531-0.17,0.766-0.298c0.236-0.127,0.455-0.278,0.658-0.454
			c0.205-0.176,0.406-0.366,0.604-0.57v-2.201c-0.805,0.022-1.496,0.084-2.078,0.183c-0.58,0.1-1.059,0.234-1.436,0.404
			s-0.654,0.372-0.834,0.607c-0.178,0.235-0.268,0.503-0.268,0.804c0,0.283,0.047,0.528,0.141,0.734
			c0.094,0.207,0.217,0.377,0.369,0.511c0.154,0.133,0.332,0.23,0.537,0.293C154.073,54.086,154.286,54.117,154.506,54.117z"/>
		<path fill="#4D4D4D" d="M160.579,54.567V46.11h0.426c0.096,0,0.166,0.02,0.207,0.059c0.043,0.04,0.068,0.108,0.072,0.204
			l0.068,1.785c0.273-0.686,0.635-1.223,1.088-1.61c0.453-0.389,1.012-0.582,1.676-0.582c0.254,0,0.49,0.026,0.705,0.08
			s0.42,0.132,0.611,0.234l-0.109,0.561c-0.018,0.091-0.074,0.136-0.17,0.136c-0.035,0-0.082-0.011-0.145-0.033
			c-0.062-0.023-0.141-0.049-0.234-0.077s-0.209-0.054-0.344-0.076c-0.137-0.022-0.293-0.034-0.469-0.034
			c-0.641,0-1.166,0.198-1.576,0.595c-0.41,0.397-0.744,0.97-0.998,1.718v5.499H160.579z"/>
		<path fill="#4D4D4D" d="M170.065,45.974c0.475,0,0.916,0.082,1.322,0.247c0.404,0.164,0.756,0.403,1.053,0.718
			s0.529,0.701,0.697,1.16s0.25,0.986,0.25,1.581c0,0.125-0.018,0.21-0.055,0.255c-0.037,0.046-0.094,0.068-0.174,0.068h-6.104
			v0.161c0,0.635,0.074,1.193,0.221,1.675c0.148,0.481,0.357,0.886,0.629,1.211c0.273,0.326,0.602,0.571,0.986,0.735
			c0.385,0.165,0.816,0.247,1.293,0.247c0.424,0,0.793-0.047,1.104-0.141c0.312-0.094,0.574-0.198,0.787-0.314
			s0.381-0.221,0.506-0.314s0.215-0.141,0.271-0.141c0.074,0,0.131,0.028,0.17,0.085l0.221,0.272
			c-0.135,0.17-0.314,0.328-0.539,0.476s-0.473,0.273-0.748,0.379c-0.275,0.104-0.568,0.188-0.885,0.25
			c-0.314,0.062-0.629,0.094-0.947,0.094c-0.578,0-1.105-0.101-1.58-0.302c-0.477-0.201-0.885-0.494-1.227-0.88
			c-0.34-0.385-0.604-0.856-0.789-1.415c-0.188-0.558-0.279-1.197-0.279-1.917c0-0.606,0.086-1.165,0.258-1.679
			c0.174-0.513,0.424-0.954,0.748-1.326c0.326-0.371,0.727-0.661,1.199-0.871C168.926,46.079,169.463,45.974,170.065,45.974z
			 M170.077,46.577c-0.436,0-0.826,0.068-1.172,0.204c-0.344,0.136-0.643,0.332-0.895,0.587s-0.455,0.561-0.611,0.918
			c-0.156,0.356-0.258,0.756-0.309,1.198h5.566c0-0.453-0.062-0.859-0.186-1.22c-0.125-0.359-0.301-0.664-0.527-0.914
			c-0.227-0.249-0.498-0.44-0.814-0.573S170.461,46.577,170.077,46.577z"/>
		<path fill="#4D4D4D" d="M179.159,54.567v-7.573l-1.189-0.077c-0.164-0.011-0.246-0.082-0.246-0.212v-0.332h1.436v-1.07
			c0-0.481,0.062-0.905,0.188-1.271c0.125-0.365,0.301-0.67,0.527-0.913c0.227-0.244,0.5-0.427,0.82-0.549
			c0.32-0.121,0.672-0.183,1.059-0.183c0.176,0,0.352,0.016,0.531,0.047c0.178,0.031,0.336,0.075,0.471,0.132l-0.025,0.391
			c-0.006,0.08-0.059,0.119-0.162,0.119c-0.066,0-0.16-0.009-0.275-0.025s-0.26-0.025-0.43-0.025c-0.277,0-0.533,0.041-0.77,0.123
			c-0.234,0.082-0.438,0.214-0.607,0.396s-0.301,0.418-0.395,0.71s-0.141,0.65-0.141,1.075v1.045h2.746v0.604h-2.729v7.591H179.159z
			"/>
		<path fill="#4D4D4D" d="M187.297,45.974c0.605,0,1.148,0.104,1.627,0.311s0.883,0.5,1.211,0.88s0.58,0.837,0.752,1.373
			c0.174,0.535,0.26,1.134,0.26,1.797s-0.086,1.262-0.26,1.794c-0.172,0.532-0.424,0.989-0.752,1.368
			c-0.328,0.38-0.732,0.672-1.211,0.876s-1.021,0.306-1.627,0.306c-0.607,0-1.15-0.102-1.629-0.306s-0.883-0.496-1.215-0.876
			c-0.332-0.379-0.584-0.836-0.756-1.368c-0.174-0.532-0.26-1.131-0.26-1.794s0.086-1.262,0.26-1.797
			c0.172-0.536,0.424-0.993,0.756-1.373s0.736-0.673,1.215-0.88S186.69,45.974,187.297,45.974z M187.297,54.04
			c0.504,0,0.943-0.086,1.32-0.259s0.691-0.421,0.943-0.744c0.254-0.322,0.441-0.712,0.566-1.169
			c0.125-0.456,0.188-0.967,0.188-1.534c0-0.561-0.062-1.07-0.188-1.529s-0.312-0.852-0.566-1.178
			c-0.252-0.325-0.566-0.576-0.943-0.752s-0.816-0.264-1.32-0.264c-0.506,0-0.945,0.088-1.322,0.264s-0.691,0.427-0.943,0.752
			c-0.252,0.326-0.441,0.719-0.57,1.178c-0.127,0.459-0.191,0.969-0.191,1.529c0,0.567,0.064,1.078,0.191,1.534
			c0.129,0.457,0.318,0.847,0.57,1.169c0.252,0.323,0.566,0.571,0.943,0.744S186.792,54.04,187.297,54.04z"/>
		<path fill="#4D4D4D" d="M193.102,54.567V46.11h0.426c0.096,0,0.166,0.02,0.207,0.059c0.043,0.04,0.068,0.108,0.072,0.204
			l0.068,1.785c0.273-0.686,0.635-1.223,1.088-1.61c0.453-0.389,1.012-0.582,1.676-0.582c0.254,0,0.49,0.026,0.705,0.08
			s0.42,0.132,0.611,0.234l-0.109,0.561c-0.018,0.091-0.074,0.136-0.17,0.136c-0.035,0-0.082-0.011-0.145-0.033
			c-0.062-0.023-0.141-0.049-0.234-0.077s-0.209-0.054-0.344-0.076c-0.137-0.022-0.293-0.034-0.469-0.034
			c-0.641,0-1.166,0.198-1.576,0.595c-0.41,0.397-0.744,0.97-0.998,1.718v5.499H193.102z"/>
		<path fill="#4D4D4D" d="M119.268,70.964c0.057,0,0.105,0.021,0.145,0.06l0.34,0.366c-0.25,0.266-0.521,0.506-0.816,0.718
			c-0.295,0.213-0.615,0.395-0.965,0.544c-0.348,0.15-0.73,0.267-1.146,0.349c-0.417,0.082-0.875,0.123-1.373,0.123
			c-0.833,0-1.597-0.146-2.291-0.438c-0.693-0.292-1.289-0.705-1.785-1.241c-0.496-0.535-0.883-1.183-1.16-1.942
			c-0.277-0.759-0.416-1.604-0.416-2.532c0-0.913,0.143-1.746,0.43-2.499c0.285-0.754,0.688-1.401,1.207-1.942
			c0.518-0.541,1.139-0.961,1.861-1.258c0.723-0.298,1.52-0.446,2.393-0.446c0.436,0,0.836,0.032,1.198,0.098
			c0.362,0.064,0.701,0.158,1.016,0.28s0.61,0.273,0.888,0.455c0.277,0.181,0.551,0.391,0.816,0.629l-0.264,0.382
			c-0.045,0.068-0.115,0.103-0.213,0.103c-0.051,0-0.115-0.03-0.195-0.09c-0.078-0.06-0.18-0.133-0.301-0.221
			c-0.123-0.088-0.27-0.184-0.442-0.289c-0.173-0.104-0.378-0.201-0.616-0.289s-0.514-0.161-0.824-0.221
			c-0.312-0.06-0.666-0.089-1.062-0.089c-0.731,0-1.402,0.126-2.015,0.378s-1.14,0.612-1.581,1.079
			c-0.441,0.468-0.786,1.034-1.033,1.7c-0.246,0.666-0.369,1.412-0.369,2.24c0,0.85,0.121,1.609,0.365,2.277
			c0.244,0.669,0.58,1.234,1.012,1.696c0.43,0.462,0.939,0.815,1.525,1.062c0.586,0.246,1.223,0.369,1.908,0.369
			c0.431,0,0.814-0.028,1.152-0.085c0.336-0.057,0.646-0.142,0.93-0.255s0.547-0.252,0.791-0.416
			c0.244-0.165,0.484-0.357,0.723-0.578c0.027-0.022,0.055-0.041,0.08-0.056C119.204,70.972,119.235,70.964,119.268,70.964z"/>
		<path fill="#4D4D4D" d="M121.774,72.987V60.62h0.807v5.354c0.391-0.481,0.838-0.865,1.34-1.151c0.5-0.286,1.062-0.43,1.688-0.43
			c0.463,0,0.873,0.074,1.227,0.222c0.355,0.147,0.648,0.359,0.881,0.637c0.232,0.278,0.408,0.612,0.527,1.003
			c0.119,0.392,0.178,0.833,0.178,1.326v5.406h-0.807v-5.406c0-0.793-0.182-1.415-0.545-1.865c-0.363-0.451-0.918-0.676-1.666-0.676
			c-0.555,0-1.07,0.143-1.547,0.429s-0.9,0.679-1.275,1.178v6.341H121.774z"/>
		<path fill="#4D4D4D" d="M134.073,64.394c0.477,0,0.918,0.082,1.322,0.247c0.404,0.164,0.756,0.403,1.055,0.718
			c0.297,0.314,0.529,0.701,0.697,1.16c0.166,0.459,0.25,0.986,0.25,1.581c0,0.125-0.02,0.21-0.055,0.255
			c-0.037,0.046-0.096,0.068-0.174,0.068h-6.104v0.161c0,0.635,0.072,1.193,0.221,1.675c0.146,0.481,0.357,0.886,0.629,1.211
			c0.271,0.326,0.6,0.571,0.986,0.735c0.385,0.165,0.814,0.247,1.291,0.247c0.426,0,0.793-0.047,1.105-0.141
			c0.311-0.094,0.574-0.198,0.787-0.314c0.211-0.116,0.381-0.221,0.504-0.314c0.125-0.094,0.217-0.141,0.273-0.141
			c0.072,0,0.129,0.028,0.17,0.085l0.221,0.272c-0.137,0.17-0.316,0.328-0.539,0.476c-0.225,0.147-0.475,0.273-0.748,0.379
			c-0.275,0.104-0.57,0.188-0.885,0.25c-0.314,0.062-0.631,0.094-0.947,0.094c-0.578,0-1.105-0.101-1.582-0.302
			c-0.475-0.201-0.885-0.494-1.225-0.88c-0.342-0.385-0.605-0.856-0.791-1.415c-0.186-0.558-0.279-1.197-0.279-1.917
			c0-0.606,0.086-1.165,0.26-1.679c0.172-0.513,0.422-0.954,0.748-1.326c0.326-0.371,0.725-0.661,1.199-0.871
			C132.936,64.499,133.473,64.394,134.073,64.394z M134.086,64.997c-0.436,0-0.826,0.068-1.172,0.204s-0.645,0.332-0.895,0.587
			c-0.252,0.255-0.457,0.561-0.611,0.918c-0.156,0.356-0.26,0.756-0.311,1.198h5.568c0-0.453-0.062-0.859-0.188-1.22
			c-0.125-0.359-0.301-0.664-0.525-0.914c-0.227-0.249-0.498-0.44-0.816-0.573C134.821,65.064,134.471,64.997,134.086,64.997z"/>
		<path fill="#4D4D4D" d="M139.299,72.987V64.53h0.443c0.146,0,0.232,0.07,0.254,0.212l0.076,1.224
			c0.164-0.231,0.34-0.444,0.527-0.637c0.188-0.193,0.387-0.358,0.6-0.497c0.213-0.14,0.439-0.247,0.68-0.323
			c0.24-0.077,0.494-0.115,0.762-0.115c0.617,0,1.109,0.181,1.479,0.54c0.367,0.36,0.617,0.86,0.748,1.5
			c0.102-0.352,0.244-0.654,0.428-0.909s0.395-0.466,0.633-0.634c0.238-0.167,0.496-0.291,0.777-0.374
			c0.279-0.082,0.566-0.123,0.861-0.123c0.418,0,0.795,0.069,1.129,0.209c0.332,0.139,0.617,0.344,0.852,0.616
			c0.234,0.271,0.414,0.606,0.539,1.003s0.188,0.85,0.188,1.359v5.406h-0.809v-5.406c0-0.827-0.178-1.457-0.535-1.891
			s-0.867-0.65-1.529-0.65c-0.295,0-0.578,0.054-0.846,0.161c-0.27,0.107-0.508,0.268-0.715,0.48s-0.371,0.478-0.492,0.795
			c-0.123,0.317-0.184,0.686-0.184,1.104v5.406h-0.807v-5.406c0-0.821-0.164-1.45-0.494-1.887c-0.328-0.437-0.807-0.654-1.436-0.654
			c-0.459,0-0.885,0.138-1.275,0.412s-0.74,0.656-1.045,1.144v6.392H139.299z"/>
		<path fill="#4D4D4D" d="M153.87,61.614c0,0.102-0.021,0.197-0.062,0.285c-0.043,0.088-0.098,0.165-0.166,0.233
			s-0.148,0.122-0.238,0.161c-0.09,0.04-0.188,0.06-0.289,0.06s-0.199-0.02-0.289-0.06c-0.09-0.039-0.17-0.093-0.238-0.161
			s-0.121-0.146-0.16-0.233c-0.041-0.088-0.061-0.184-0.061-0.285s0.02-0.199,0.061-0.293c0.039-0.094,0.092-0.175,0.16-0.242
			c0.068-0.068,0.148-0.122,0.238-0.162c0.09-0.039,0.188-0.06,0.289-0.06s0.199,0.021,0.289,0.06c0.09,0.04,0.17,0.094,0.238,0.162
			c0.068,0.067,0.123,0.148,0.166,0.242C153.848,61.415,153.87,61.513,153.87,61.614z M153.514,64.53v8.457h-0.809V64.53H153.514z"
			/>
		<path fill="#4D4D4D" d="M160.692,65.584c-0.039,0.079-0.102,0.119-0.188,0.119c-0.062,0-0.143-0.036-0.242-0.106
			c-0.098-0.071-0.229-0.15-0.391-0.238c-0.16-0.088-0.359-0.167-0.594-0.238c-0.236-0.07-0.523-0.105-0.863-0.105
			c-0.307,0-0.586,0.044-0.838,0.131c-0.252,0.088-0.467,0.205-0.646,0.353c-0.178,0.146-0.316,0.317-0.416,0.513
			c-0.1,0.194-0.148,0.399-0.148,0.614c0,0.266,0.068,0.486,0.203,0.661c0.137,0.176,0.314,0.325,0.537,0.449
			c0.221,0.124,0.471,0.231,0.752,0.322c0.279,0.091,0.568,0.181,0.863,0.271c0.293,0.091,0.582,0.191,0.861,0.302
			c0.281,0.11,0.531,0.248,0.752,0.412c0.223,0.165,0.4,0.366,0.537,0.604c0.135,0.238,0.203,0.527,0.203,0.867
			c0,0.368-0.066,0.711-0.199,1.028s-0.326,0.593-0.578,0.825s-0.562,0.416-0.932,0.552c-0.367,0.137-0.787,0.204-1.258,0.204
			c-0.594,0-1.107-0.095-1.539-0.284c-0.43-0.19-0.814-0.438-1.154-0.744l0.195-0.289c0.027-0.045,0.059-0.079,0.094-0.102
			c0.033-0.022,0.082-0.034,0.145-0.034c0.072,0,0.164,0.045,0.271,0.136s0.248,0.188,0.42,0.293
			c0.174,0.105,0.389,0.203,0.646,0.294s0.576,0.136,0.957,0.136c0.355,0,0.67-0.05,0.943-0.148c0.271-0.1,0.498-0.234,0.68-0.404
			s0.318-0.369,0.412-0.599s0.141-0.472,0.141-0.728c0-0.283-0.068-0.519-0.205-0.705c-0.135-0.188-0.314-0.346-0.535-0.476
			c-0.221-0.131-0.471-0.241-0.752-0.332s-0.57-0.182-0.867-0.271c-0.297-0.091-0.586-0.19-0.867-0.298s-0.531-0.244-0.752-0.408
			s-0.4-0.364-0.535-0.6c-0.137-0.234-0.205-0.528-0.205-0.879c0-0.301,0.066-0.59,0.195-0.867c0.131-0.277,0.316-0.521,0.557-0.731
			c0.242-0.209,0.535-0.377,0.881-0.501c0.346-0.125,0.734-0.188,1.164-0.188c0.516,0,0.973,0.075,1.373,0.225
			s0.766,0.378,1.102,0.686L160.692,65.584z"/>
		<path fill="#4D4D4D" d="M165.594,73.123c-0.572,0-1.018-0.158-1.336-0.476c-0.316-0.317-0.475-0.808-0.475-1.471v-5.78h-1.217
			c-0.062,0-0.113-0.017-0.152-0.051s-0.059-0.082-0.059-0.145v-0.314l1.443-0.102l0.203-3.026c0.006-0.051,0.025-0.097,0.062-0.136
			c0.037-0.04,0.086-0.06,0.146-0.06h0.379v3.229h2.66v0.604h-2.66v5.738c0,0.232,0.029,0.432,0.09,0.599
			c0.059,0.167,0.141,0.305,0.246,0.412c0.105,0.108,0.229,0.188,0.369,0.238c0.143,0.051,0.295,0.076,0.459,0.076
			c0.205,0,0.381-0.029,0.527-0.089c0.148-0.06,0.275-0.125,0.383-0.195c0.107-0.071,0.195-0.136,0.264-0.195s0.121-0.09,0.162-0.09
			c0.045,0,0.09,0.028,0.135,0.085l0.221,0.357c-0.215,0.238-0.488,0.429-0.82,0.573C166.295,73.051,165.95,73.123,165.594,73.123z"
			/>
		<path fill="#4D4D4D" d="M169.11,72.987V64.53h0.426c0.096,0,0.166,0.02,0.207,0.059c0.043,0.04,0.068,0.108,0.072,0.204
			l0.068,1.785c0.273-0.686,0.635-1.223,1.088-1.61c0.453-0.389,1.012-0.582,1.676-0.582c0.254,0,0.49,0.026,0.705,0.08
			s0.42,0.132,0.611,0.234l-0.109,0.561c-0.018,0.091-0.074,0.136-0.17,0.136c-0.035,0-0.082-0.011-0.145-0.033
			c-0.062-0.023-0.141-0.049-0.234-0.077s-0.209-0.054-0.344-0.076c-0.137-0.022-0.293-0.034-0.469-0.034
			c-0.641,0-1.166,0.198-1.576,0.595c-0.41,0.397-0.744,0.97-0.998,1.718v5.499H169.11z"/>
		<path fill="#4D4D4D" d="M178.043,75.707c-0.033,0.079-0.078,0.145-0.131,0.195c-0.055,0.052-0.133,0.077-0.234,0.077H177.1
			l1.488-3.307l-3.58-8.143h0.672c0.086,0,0.152,0.021,0.201,0.063c0.047,0.042,0.082,0.089,0.105,0.14l2.848,6.579
			c0.033,0.085,0.064,0.172,0.09,0.26s0.049,0.177,0.072,0.268c0.027-0.091,0.057-0.18,0.088-0.268s0.064-0.175,0.098-0.26
			l2.814-6.579c0.027-0.062,0.068-0.111,0.119-0.148s0.107-0.055,0.17-0.055h0.621L178.043,75.707z"/>
		<path fill="#4D4D4D" d="M191.985,60.824c0.379,0,0.738,0.064,1.078,0.195c0.342,0.13,0.637,0.306,0.889,0.526
			c0.252,0.222,0.453,0.478,0.604,0.77s0.23,0.597,0.242,0.914c-0.078,0.017-0.15,0.034-0.213,0.051
			c-0.129,0.028-0.232,0.043-0.305,0.043c-0.045,0-0.088-0.018-0.129-0.052c-0.039-0.033-0.066-0.082-0.084-0.145
			c-0.039-0.146-0.107-0.317-0.203-0.51c-0.098-0.192-0.229-0.374-0.393-0.544s-0.369-0.314-0.615-0.434s-0.537-0.179-0.871-0.179
			c-0.34,0-0.65,0.053-0.928,0.157c-0.277,0.105-0.516,0.253-0.713,0.442c-0.199,0.189-0.354,0.415-0.463,0.676
			c-0.111,0.261-0.166,0.547-0.166,0.858c0,0.465,0.119,0.909,0.357,1.335c0.236,0.425,0.605,0.881,1.104,1.368l3.791,3.74
			c0.256-0.408,0.459-0.833,0.607-1.275c0.15-0.441,0.248-0.87,0.295-1.283c0.01-0.074,0.033-0.132,0.066-0.175
			c0.035-0.042,0.086-0.063,0.154-0.063h0.467c-0.012,0.533-0.111,1.081-0.301,1.645c-0.191,0.564-0.461,1.104-0.812,1.619
			l2.533,2.482h-0.756c-0.104,0-0.188-0.012-0.252-0.034s-0.141-0.073-0.225-0.152l-1.742-1.709
			c-0.256,0.295-0.535,0.566-0.842,0.816c-0.307,0.249-0.639,0.463-0.994,0.642c-0.357,0.179-0.738,0.318-1.145,0.421
			c-0.404,0.102-0.832,0.152-1.279,0.152c-0.424,0-0.844-0.07-1.258-0.212s-0.783-0.351-1.109-0.625s-0.588-0.612-0.789-1.012
			s-0.303-0.854-0.303-1.364c0-0.408,0.074-0.798,0.221-1.169c0.148-0.371,0.35-0.711,0.604-1.02
			c0.256-0.309,0.559-0.585,0.91-0.829c0.352-0.243,0.73-0.441,1.139-0.595c-0.402-0.453-0.703-0.894-0.904-1.322
			c-0.201-0.428-0.303-0.885-0.303-1.372c0-0.396,0.072-0.764,0.217-1.101c0.145-0.338,0.35-0.631,0.617-0.88
			c0.266-0.25,0.584-0.445,0.955-0.587S191.526,60.824,191.985,60.824z M188.108,69.859c0,0.437,0.084,0.816,0.252,1.139
			c0.166,0.323,0.383,0.594,0.65,0.812c0.266,0.219,0.561,0.382,0.887,0.489s0.648,0.161,0.965,0.161
			c0.396,0,0.773-0.045,1.127-0.136s0.686-0.217,0.994-0.378c0.309-0.162,0.592-0.353,0.85-0.574
			c0.258-0.221,0.494-0.464,0.711-0.73l-3.902-3.834c-0.033-0.028-0.064-0.06-0.094-0.094c-0.373,0.159-0.713,0.349-1.016,0.57
			c-0.303,0.221-0.559,0.466-0.77,0.735c-0.209,0.269-0.371,0.56-0.484,0.871S188.108,69.525,188.108,69.859z"/>
		<path fill="#4D4D4D" d="M116.532,88.415c0.033-0.091,0.068-0.18,0.105-0.268s0.078-0.171,0.123-0.251l4.727-8.355
			c0.045-0.073,0.09-0.119,0.137-0.136c0.045-0.017,0.107-0.025,0.186-0.025h0.604v12.027h-0.764V81.156
			c0-0.147,0.008-0.303,0.025-0.468l-4.735,8.407c-0.079,0.146-0.192,0.221-0.34,0.221h-0.136c-0.143,0-0.256-0.074-0.34-0.221
			l-4.862-8.415c0.017,0.164,0.025,0.322,0.025,0.476v10.251h-0.757V79.38h0.596c0.079,0,0.143,0.009,0.191,0.025
			c0.047,0.017,0.094,0.062,0.14,0.136l4.854,8.364C116.395,88.063,116.469,88.234,116.532,88.415z"/>
		<path fill="#4D4D4D" d="M130.627,91.407c-0.17,0-0.275-0.079-0.314-0.238l-0.119-1.079c-0.232,0.227-0.463,0.431-0.693,0.612
			c-0.229,0.181-0.469,0.334-0.719,0.459c-0.248,0.124-0.518,0.22-0.807,0.284c-0.289,0.065-0.607,0.098-0.951,0.098
			c-0.289,0-0.57-0.042-0.842-0.127c-0.273-0.085-0.514-0.216-0.723-0.392c-0.211-0.175-0.379-0.4-0.506-0.676
			c-0.127-0.274-0.191-0.604-0.191-0.99c0-0.356,0.102-0.688,0.307-0.994c0.203-0.306,0.521-0.572,0.955-0.799
			s0.992-0.408,1.676-0.544c0.682-0.137,1.502-0.216,2.459-0.238v-0.884c0-0.782-0.168-1.384-0.506-1.807
			c-0.336-0.422-0.836-0.633-1.5-0.633c-0.408,0-0.754,0.057-1.041,0.17c-0.285,0.113-0.527,0.238-0.727,0.374
			c-0.197,0.136-0.359,0.261-0.484,0.374s-0.229,0.17-0.314,0.17c-0.113,0-0.199-0.051-0.256-0.153l-0.143-0.246
			c0.441-0.442,0.906-0.776,1.393-1.003c0.488-0.227,1.041-0.34,1.658-0.34c0.453,0,0.85,0.072,1.189,0.217
			c0.34,0.144,0.623,0.351,0.846,0.62c0.225,0.27,0.393,0.595,0.506,0.978s0.17,0.809,0.17,1.279v5.508H130.627z M127.227,90.957
			c0.328,0,0.631-0.035,0.904-0.106c0.275-0.071,0.531-0.17,0.766-0.298c0.236-0.127,0.455-0.278,0.658-0.454
			c0.205-0.176,0.406-0.366,0.604-0.57v-2.201c-0.805,0.022-1.496,0.084-2.078,0.183c-0.58,0.1-1.059,0.234-1.436,0.404
			s-0.654,0.372-0.834,0.607c-0.178,0.235-0.268,0.503-0.268,0.804c0,0.283,0.047,0.528,0.141,0.734
			c0.094,0.207,0.217,0.377,0.369,0.511c0.154,0.133,0.332,0.23,0.537,0.293C126.793,90.926,127.006,90.957,127.227,90.957z"/>
		<path fill="#4D4D4D" d="M135.504,91.543c-0.572,0-1.018-0.158-1.334-0.476c-0.318-0.317-0.477-0.808-0.477-1.471v-5.78h-1.215
			c-0.062,0-0.113-0.017-0.152-0.051c-0.041-0.034-0.061-0.082-0.061-0.145v-0.314l1.445-0.102l0.201-3.026
			c0.006-0.051,0.027-0.097,0.062-0.136c0.037-0.04,0.086-0.06,0.148-0.06h0.379v3.229h2.66v0.604h-2.66v5.738
			c0,0.232,0.029,0.432,0.088,0.599c0.061,0.167,0.143,0.305,0.248,0.412c0.104,0.108,0.227,0.188,0.369,0.238
			c0.141,0.051,0.295,0.076,0.459,0.076c0.203,0,0.379-0.029,0.527-0.089c0.146-0.06,0.273-0.125,0.383-0.195
			c0.107-0.071,0.195-0.136,0.262-0.195c0.068-0.06,0.123-0.09,0.162-0.09c0.045,0,0.09,0.028,0.137,0.085l0.221,0.357
			c-0.215,0.238-0.488,0.429-0.82,0.573S135.862,91.543,135.504,91.543z"/>
		<path fill="#4D4D4D" d="M141.995,82.813c0.477,0,0.918,0.082,1.322,0.247c0.404,0.164,0.756,0.403,1.055,0.718
			c0.297,0.314,0.529,0.701,0.697,1.16c0.166,0.459,0.25,0.986,0.25,1.581c0,0.125-0.02,0.21-0.055,0.255
			c-0.037,0.046-0.096,0.068-0.174,0.068h-6.104v0.161c0,0.635,0.072,1.193,0.221,1.675c0.146,0.481,0.357,0.886,0.629,1.211
			c0.271,0.326,0.6,0.571,0.986,0.735c0.385,0.165,0.814,0.247,1.291,0.247c0.426,0,0.793-0.047,1.105-0.141
			c0.311-0.094,0.574-0.198,0.787-0.314c0.211-0.116,0.381-0.221,0.504-0.314c0.125-0.094,0.217-0.141,0.273-0.141
			c0.072,0,0.129,0.028,0.17,0.085l0.221,0.272c-0.137,0.17-0.316,0.328-0.539,0.476c-0.225,0.147-0.475,0.273-0.748,0.379
			c-0.275,0.104-0.57,0.188-0.885,0.25c-0.314,0.062-0.631,0.094-0.947,0.094c-0.578,0-1.105-0.101-1.582-0.302
			c-0.475-0.201-0.885-0.494-1.225-0.88c-0.342-0.385-0.605-0.856-0.791-1.415c-0.186-0.558-0.279-1.197-0.279-1.917
			c0-0.606,0.086-1.165,0.26-1.679c0.172-0.513,0.422-0.954,0.748-1.326c0.326-0.371,0.725-0.661,1.199-0.871
			C140.858,82.919,141.395,82.813,141.995,82.813z M142.008,83.417c-0.436,0-0.826,0.068-1.172,0.204s-0.645,0.332-0.895,0.587
			c-0.252,0.255-0.457,0.561-0.611,0.918c-0.156,0.356-0.26,0.756-0.311,1.198h5.568c0-0.453-0.062-0.859-0.188-1.22
			c-0.125-0.359-0.301-0.664-0.525-0.914c-0.227-0.249-0.498-0.44-0.816-0.573C142.743,83.484,142.393,83.417,142.008,83.417z"/>
		<path fill="#4D4D4D" d="M147.223,91.407V82.95h0.424c0.098,0,0.166,0.02,0.209,0.059c0.043,0.04,0.066,0.108,0.072,0.204
			l0.068,1.785c0.271-0.686,0.635-1.223,1.088-1.61c0.453-0.389,1.012-0.582,1.674-0.582c0.256,0,0.49,0.026,0.705,0.08
			c0.217,0.054,0.42,0.132,0.613,0.234l-0.111,0.561c-0.018,0.091-0.074,0.136-0.17,0.136c-0.033,0-0.082-0.011-0.145-0.033
			c-0.062-0.023-0.141-0.049-0.234-0.077c-0.092-0.028-0.207-0.054-0.344-0.076c-0.135-0.022-0.291-0.034-0.467-0.034
			c-0.641,0-1.166,0.198-1.576,0.595c-0.412,0.397-0.744,0.97-1,1.718v5.499H147.223z"/>
		<path fill="#4D4D4D" d="M155.018,80.034c0,0.102-0.021,0.197-0.062,0.285c-0.043,0.088-0.098,0.165-0.166,0.233
			s-0.148,0.122-0.238,0.161c-0.09,0.04-0.188,0.06-0.289,0.06s-0.199-0.02-0.289-0.06c-0.09-0.039-0.17-0.093-0.238-0.161
			s-0.121-0.146-0.16-0.233c-0.041-0.088-0.061-0.184-0.061-0.285s0.02-0.199,0.061-0.293c0.039-0.094,0.092-0.175,0.16-0.242
			c0.068-0.068,0.148-0.122,0.238-0.162c0.09-0.039,0.188-0.06,0.289-0.06s0.199,0.021,0.289,0.06c0.09,0.04,0.17,0.094,0.238,0.162
			c0.068,0.067,0.123,0.148,0.166,0.242C154.997,79.835,155.018,79.933,155.018,80.034z M154.663,82.95v8.457h-0.809V82.95H154.663z
			"/>
		<path fill="#4D4D4D" d="M162.502,91.407c-0.17,0-0.273-0.079-0.314-0.238l-0.119-1.079c-0.232,0.227-0.463,0.431-0.691,0.612
			c-0.23,0.181-0.469,0.334-0.719,0.459c-0.25,0.124-0.52,0.22-0.809,0.284c-0.287,0.065-0.605,0.098-0.951,0.098
			c-0.289,0-0.57-0.042-0.842-0.127s-0.512-0.216-0.723-0.392c-0.209-0.175-0.377-0.4-0.506-0.676
			c-0.127-0.274-0.191-0.604-0.191-0.99c0-0.356,0.104-0.688,0.307-0.994c0.205-0.306,0.523-0.572,0.957-0.799
			s0.99-0.408,1.674-0.544c0.684-0.137,1.504-0.216,2.461-0.238v-0.884c0-0.782-0.168-1.384-0.506-1.807
			c-0.338-0.422-0.838-0.633-1.5-0.633c-0.408,0-0.756,0.057-1.041,0.17c-0.287,0.113-0.529,0.238-0.727,0.374
			c-0.199,0.136-0.361,0.261-0.484,0.374c-0.125,0.113-0.23,0.17-0.314,0.17c-0.115,0-0.199-0.051-0.256-0.153l-0.145-0.246
			c0.441-0.442,0.906-0.776,1.395-1.003c0.486-0.227,1.039-0.34,1.656-0.34c0.453,0,0.852,0.072,1.191,0.217
			c0.34,0.144,0.621,0.351,0.846,0.62c0.223,0.27,0.393,0.595,0.506,0.978s0.17,0.809,0.17,1.279v5.508H162.502z M159.102,90.957
			c0.33,0,0.631-0.035,0.906-0.106s0.529-0.17,0.766-0.298c0.234-0.127,0.453-0.278,0.658-0.454c0.203-0.176,0.404-0.366,0.604-0.57
			v-2.201c-0.805,0.022-1.498,0.084-2.078,0.183c-0.582,0.1-1.061,0.234-1.438,0.404s-0.654,0.372-0.832,0.607
			c-0.18,0.235-0.268,0.503-0.268,0.804c0,0.283,0.047,0.528,0.141,0.734c0.092,0.207,0.217,0.377,0.369,0.511
			c0.152,0.133,0.332,0.23,0.535,0.293C158.67,90.926,158.881,90.957,159.102,90.957z"/>
		<path fill="#4D4D4D" d="M166.106,79.04v12.367h-0.809V79.04H166.106z"/>
		<path fill="#4D4D4D" d="M173.284,84.004c-0.039,0.079-0.102,0.119-0.188,0.119c-0.062,0-0.143-0.036-0.242-0.106
			c-0.098-0.071-0.229-0.15-0.391-0.238c-0.16-0.088-0.359-0.167-0.594-0.238c-0.236-0.07-0.523-0.105-0.863-0.105
			c-0.307,0-0.586,0.044-0.838,0.131c-0.252,0.088-0.467,0.205-0.646,0.353c-0.178,0.146-0.316,0.317-0.416,0.513
			c-0.1,0.194-0.148,0.399-0.148,0.614c0,0.266,0.068,0.486,0.203,0.661c0.137,0.176,0.314,0.325,0.537,0.449
			c0.221,0.124,0.471,0.231,0.752,0.322c0.279,0.091,0.568,0.181,0.863,0.271c0.293,0.091,0.582,0.191,0.861,0.302
			c0.281,0.11,0.531,0.248,0.752,0.412c0.223,0.165,0.4,0.366,0.537,0.604c0.135,0.238,0.203,0.527,0.203,0.867
			c0,0.368-0.066,0.711-0.199,1.028s-0.326,0.593-0.578,0.825s-0.562,0.416-0.932,0.552c-0.367,0.137-0.787,0.204-1.258,0.204
			c-0.594,0-1.107-0.095-1.539-0.284c-0.43-0.19-0.814-0.438-1.154-0.744l0.195-0.289c0.027-0.045,0.059-0.079,0.094-0.102
			c0.033-0.022,0.082-0.034,0.145-0.034c0.072,0,0.164,0.045,0.271,0.136s0.248,0.188,0.42,0.293
			c0.174,0.105,0.389,0.203,0.646,0.294s0.576,0.136,0.957,0.136c0.355,0,0.67-0.05,0.943-0.148c0.271-0.1,0.498-0.234,0.68-0.404
			s0.318-0.369,0.412-0.599s0.141-0.472,0.141-0.728c0-0.283-0.068-0.519-0.205-0.705c-0.135-0.188-0.314-0.346-0.535-0.476
			c-0.221-0.131-0.471-0.241-0.752-0.332s-0.57-0.182-0.867-0.271c-0.297-0.091-0.586-0.19-0.867-0.298s-0.531-0.244-0.752-0.408
			s-0.4-0.364-0.535-0.6c-0.137-0.234-0.205-0.528-0.205-0.879c0-0.301,0.066-0.59,0.195-0.867c0.131-0.277,0.316-0.521,0.557-0.731
			c0.242-0.209,0.535-0.377,0.881-0.501c0.346-0.125,0.734-0.188,1.164-0.188c0.516,0,0.973,0.075,1.373,0.225
			s0.766,0.378,1.102,0.686L173.284,84.004z"/>
	</g>
</g>
</svg>
